<?xml version="1.0" encoding="utf-8"?>
<!-- Generator: Adobe Illustrator 24.0.2, SVG Export Plug-In . SVG Version: 6.00 Build 0)  -->
<svg version="1.1" id="Layer_3" xmlns="http://www.w3.org/2000/svg" xmlns:xlink="http://www.w3.org/1999/xlink" x="0px" y="0px"
	 viewBox="0 0 667.4 486.9" style="enable-background:new 0 0 667.4 486.9;" xml:space="preserve">
<style type="text/css">
	.st0{fill:#FFFFFF;}
	.st1{fill:#2DA7CB;}
	.st2{fill:#71C492;}
	.st3{fill:#AF7BAF;}
	.st4{fill:#2D6B9E;}
	.st5{fill:#505E63;}
	.st6{fill:#703F75;}
	.st7{fill:#1E1E1E;}
	.st8{enable-background:new    ;}
	.st9{font-family:'OpenSans-Italic';}
	.st10{font-size:14px;}
	.st11{font-family:'OpenSans-Regular';}
</style>
<rect class="st0" width="667.4" height="486.9"/>
<g>
	<g>
		<polygon class="st1" points="84.2,96.5 84.2,92.6 77.8,88.1 71.5,92.6 71.5,96.5 75.9,93.2 75.9,170.1 71.5,166.9 71.5,170.8 
			77.8,175.4 84.2,170.8 84.2,166.9 79.7,170.1 79.7,93.2 		"/>
		<polygon class="st2" points="338.4,96.5 338.4,92.6 332,88.1 325.7,92.6 325.7,96.5 330.1,93.2 330.1,170.1 325.7,166.9 
			325.7,170.8 332,175.4 338.4,170.8 338.4,166.9 333.9,170.1 333.9,93.2 		"/>
		<polygon class="st3" points="592.6,96.5 592.6,92.6 586.3,88.1 579.9,92.6 579.9,96.5 584.4,93.2 584.4,170.1 579.9,166.9 
			579.9,170.8 586.3,175.4 592.6,170.8 592.6,166.9 588.2,170.1 588.2,93.2 		"/>
		<polygon class="st1" points="305.5,169.1 300.8,167.2 302.5,171.6 109.1,92.8 115.2,91.6 110.6,89.7 101.9,91.4 104.4,97.6 
			109,99.5 107.3,95.1 300.7,174 294.6,175.2 299.3,177 307.9,175.4 		"/>
		<polygon class="st2" points="299.2,85.1 294.6,87 300.7,88.2 107.2,168.3 108.9,163.8 104.3,165.7 101.9,172 110.7,173.7 
			115.2,171.7 109.1,170.6 302.6,90.5 300.9,94.8 305.6,92.9 307.9,86.8 		"/>
		<polygon class="st2" points="559.8,165.7 555.1,163.8 556.8,168.3 363.4,88.2 369.5,87 364.9,85.1 356.1,86.8 358.5,92.9 
			363.2,94.8 361.5,90.5 554.9,170.6 548.9,171.7 553.4,173.7 562.2,172 		"/>
		<polygon class="st1" points="529.1,169.6 524,168.5 526.9,172.6 133.5,85 139.1,82.9 134,81.7 126.1,84.7 130.3,90.4 135.4,91.5 
			132.5,87.5 525.8,175.1 520.2,177.2 525.4,178.3 533.3,175.4 		"/>
		<polygon class="st3" points="553.5,89.7 548.9,91.6 554.9,92.8 361.6,171.6 363.3,167.2 358.6,169.1 356.1,175.4 364.8,177 
			369.5,175.2 363.4,174 556.7,95.1 555,99.5 559.7,97.6 562.2,91.4 		"/>
		<polygon class="st3" points="530.1,81.7 525,82.9 530.6,85 137.1,172.6 140.1,168.5 134.9,169.6 130.8,175.4 138.7,178.3 
			143.9,177.2 138.3,175.1 531.6,87.5 528.7,91.5 533.8,90.4 538,84.7 		"/>
		<g>
			<polygon class="st4" points="200,129.9 196.2,131.4 200,132.9 203.7,131.4 			"/>
			<polygon class="st4" points="332,131.9 333.9,132.3 333.9,131.6 			"/>
			<polygon class="st4" points="332,129.1 330.1,128.7 330.1,129.6 			"/>
			<polygon class="st4" points="252.1,111.3 247.3,110.2 242.8,112.1 247.8,113.2 			"/>
			<polygon class="st5" points="460.3,131.4 464,132.9 467.8,131.4 464,129.9 			"/>
			<polygon class="st6" points="414.1,150.3 419.1,151.3 423.4,149.5 418.6,148.4 			"/>
			<polygon class="st5" points="333.9,129.6 333.9,128.7 332,129.1 			"/>
			<polygon class="st5" points="330.1,131.6 330.1,132.3 332,131.9 			"/>
			<polygon class="st6" points="240.7,149.5 245,151.3 250,150.3 245.5,148.4 			"/>
			<polygon class="st5" points="421.2,112.1 416.8,110.2 411.9,111.3 416.3,113.2 			"/>
			<polygon class="st6" points="333.9,129.6 332,129.1 330.1,129.6 325.7,130.5 330.1,131.6 332,131.9 333.9,131.6 338.4,130.5 			
				"/>
		</g>
	</g>
	<g>
		<g>
			<path class="st7" d="M633.5,22.7c0-0.2,0-0.4,0-0.6c-0.1-1-0.5-1.4-1.4-1.3c-0.9,0-1.7,0.1-2.6,0.1c-12.5,0.5-25.1,1-37.7,1.2
				c-9.8,0.2-19.5-0.1-29.2-0.3c-7.9-0.2-15.7-0.7-23.5-1c-1.7-0.1-2,0.2-2,1.8c0,13.2,0,26.5,0,39.7c0,1.4,0.3,1.8,1.7,1.8
				c5.8-0.1,11.7-0.3,17.5-0.3c8-0.1,15.9-0.1,23.9-0.2c0.5,0,0.9,0,1.5,0c0,4.3,0,8.4,0,12.6c0,0.2-0.4,0.6-0.7,0.7
				c-8.1,1.2-16.2,2.5-24.3,3.7c-1.4,0.2-2.8,0.4-4.3,0.7c-0.9,0.2-1.2,1-0.9,2.2c0.2,0.9,0.9,0.7,1.4,0.6c1.9-0.2,3.7-0.4,5.6-0.6
				c5.7-0.7,11.4-1.2,17.1-1.9c5.2-0.6,10.4-1.3,15.8-0.5c6.2,0.9,12.3,1.4,18.5,2.1c2.8,0.3,5.7,0.7,8.5,0.9c0.3,0,0.9-0.1,0.9-0.4
				c0.7-1-0.1-2.4-1.3-2.6c-7.8-1.1-15.5-2.4-23.2-3.5c-1.8-0.3-3.6-0.6-5.4-0.9c0-4.4,0-8.7,0-13.2c0.4,0,0.7,0,1,0
				c3.8,0,7.7,0.1,11.5,0.1c10,0.1,20,0.3,30,0.4c1.5,0,1.8-0.3,1.8-1.9C633.5,49,633.5,35.8,633.5,22.7z M540.4,58.8
				c0-11.2,0-22.5,0-33.7c0-1.1,0-1.3,0.9-1.3c0.2,0,0.4,0,0.6,0c6.6,0.3,13.3,0.8,20,0.9c8.2,0.2,16.3,0.4,24.5,0.4
				c1.7,0,3.5,0,5.2,0c10.7-0.1,21.4-0.6,32.1-0.9c1.8-0.1,3.6-0.2,5.5-0.3c0.1,0,0.1,0,0.2,0c0.7,0,0.9,0.3,0.9,0.9
				c0,11.4,0,22.9,0,34.3c0,0.9-0.4,1-1.1,1c0,0,0,0-0.1,0c-13.1-0.2-37.9-0.4-42.9-0.4c-0.6,0-0.9,0-0.9,0c-4.5,0-8.9,0-13.4,0
				c-2.8,0-5.7,0-8.5,0c-7.2,0.1-14.3,0.2-21.5,0.4c-0.1,0-0.2,0-0.3,0C540.5,60,540.4,59.9,540.4,58.8z"/>
			<g class="st8">
				<path class="st7" d="M560.7,42.9c0-3.9,2.1-6.2,5.5-6.2c2.8,0,4.9,1.8,5.1,4.5h-2.5c-0.3-1.3-1.3-2.3-2.7-2.3c-1.8,0-3,1.5-3,4
					s1.1,4,3,4c1.4,0,2.6-0.9,2.7-2.1h2.5c-0.2,2.6-2.3,4.3-5.1,4.3C562.9,49.1,560.7,46.8,560.7,42.9z"/>
				<path class="st7" d="M573.5,36.4h2.4v12.5h-2.4V36.4z"/>
				<path class="st7" d="M578.3,37.3c0-0.7,0.6-1.1,1.4-1.1c0.9,0,1.4,0.5,1.4,1.1s-0.6,1.1-1.4,1.1
					C578.8,38.6,578.3,38.1,578.3,37.3z M578.5,39.8h2.4v9h-2.4V39.8z"/>
				<path class="st7" d="M591.3,46.3c-0.4,1.7-1.9,2.8-4.1,2.8c-2.8,0-4.4-1.8-4.4-4.7c0-2.9,1.7-4.7,4.4-4.7c2.7,0,4.2,1.7,4.2,4.6
					v0.8h-6.2v0.1c0,1.3,0.9,2.2,2.1,2.2c0.9,0,1.6-0.4,1.8-0.9L591.3,46.3L591.3,46.3L591.3,46.3z M585.2,43.3h3.9
					c-0.1-1.1-0.8-1.9-1.8-1.9C586.1,41.4,585.2,42.2,585.2,43.3z"/>
				<path class="st7" d="M593.4,39.8h2.4v1.4h0.2c0.4-1,1.3-1.7,2.7-1.7c2,0,3.1,1.2,3.1,3.3v5.9h-2.6v-5.3c0-1.2-0.5-1.9-1.7-1.9
					c-1,0-1.8,0.8-1.8,1.9v5.3h-2.3L593.4,39.8L593.4,39.8z"/>
				<path class="st7" d="M606.9,37.6v2.3h1.8v1.8h-1.8v4c0,0.8,0.4,1.1,1.1,1.1c0.4,0,0.5,0,0.7,0v1.8c-0.4,0.1-0.8,0.1-1.1,0.1
					c-2.2,0-3.1-0.7-3.1-2.5v-4.7h-1.4v-1.8h1.4v-2.3C604.6,37.6,606.9,37.6,606.9,37.6z"/>
			</g>
		</g>
		<g>
			<path class="st7" d="M368.6,73.2V29.5c0-1.9-1.5-3.4-3.4-3.4h-65.9c-1.9,0-3.4,1.5-3.4,3.4v43.7h-4.6c0.4,3.1,2.6,5.5,5.2,5.5
				h71.4c2.6,0,4.7-2.5,5.2-5.5C372.9,73.2,368.6,73.2,368.6,73.2z M364.7,73.2h-20.6c0,1.2-1,2.4-2.4,2.4h-19.5
				c-1.2,0-2.4-1-2.4-2.4h-20.2V29.9h65L364.7,73.2C364.8,73.2,364.7,73.2,364.7,73.2z"/>
			<g class="st8">
				<path class="st7" d="M308.2,52.8c0-3.9,2.1-6.2,5.5-6.2c2.8,0,4.9,1.8,5.1,4.5h-2.5c-0.3-1.3-1.3-2.3-2.7-2.3c-1.8,0-3,1.5-3,4
					s1.1,4,3,4c1.4,0,2.6-0.9,2.7-2.1h2.5c-0.2,2.6-2.3,4.3-5.1,4.3C310.3,59,308.2,56.7,308.2,52.8z"/>
				<path class="st7" d="M320.9,46.3h2.4v12.5h-2.4V46.3z"/>
				<path class="st7" d="M325.7,47.2c0-0.7,0.6-1.1,1.4-1.1c0.9,0,1.4,0.5,1.4,1.1s-0.6,1.1-1.4,1.1C326.2,48.4,325.7,48,325.7,47.2
					z M325.8,49.7h2.4v9h-2.4V49.7z"/>
				<path class="st7" d="M338.7,56.1c-0.4,1.7-1.9,2.8-4.1,2.8c-2.8,0-4.4-1.8-4.4-4.7c0-2.9,1.7-4.7,4.4-4.7s4.2,1.7,4.2,4.6v0.8
					h-6.2v0.1c0,1.3,0.9,2.2,2.1,2.2c0.9,0,1.6-0.4,1.8-0.9L338.7,56.1L338.7,56.1L338.7,56.1z M332.6,53.2h3.9
					c-0.1-1.1-0.8-1.9-1.8-1.9C333.5,51.3,332.7,52,332.6,53.2z"/>
				<path class="st7" d="M340.8,49.7h2.4v1.4h0.2c0.4-1,1.3-1.7,2.7-1.7c2,0,3.1,1.2,3.1,3.3v5.9h-2.4v-5.3c0-1.2-0.5-1.9-1.7-1.9
					c-1,0-1.8,0.8-1.8,1.9v5.3h-2.4L340.8,49.7C340.9,49.7,340.8,49.7,340.8,49.7z"/>
				<path class="st7" d="M354.3,47.5v2.3h1.8v1.8h-1.8v4c0,0.8,0.4,1.1,1.1,1.1c0.4,0,0.5,0,0.7,0v1.8c-0.4,0.1-0.8,0.1-1.1,0.1
					c-2.2,0-3.1-0.7-3.1-2.5v-4.7h-1.4v-1.8h1.4v-2.3C351.9,47.5,354.3,47.5,354.3,47.5z"/>
			</g>
		</g>
		<g>
			<path class="st7" d="M78.5,30.4c12.8,0,25.5,0,38.3,0c4.2,0,6.5,2.3,6.5,6.5c0,10.5,0,21.1,0,31.5c0,3.1-2.3,5.5-5.3,5.9
				c-0.5,0.1-0.9,0.1-1.4,0.1c-25.4,0-50.9,0-76.3,0c-4.4,0-6.6-2.3-6.6-6.6c0-10.3,0-20.7,0-31.1c0-3.6,2.5-6.1,6.1-6.1
				C52.7,30.4,65.6,30.4,78.5,30.4L78.5,30.4z M77.6,33.9c-11.1,0-22.1,0-33.2,0c-1.6,0-1.7,0.1-1.7,1.7c0,11.2,0,22.3,0,33.5
				c0,1.5,0.2,1.7,1.7,1.7c5.4,0,10.9,0,16.3,0c16.6,0,33.2,0,49.8,0c1.5,0,1.6-0.1,1.6-1.6c0-11.2,0-22.5,0-33.7
				c0-1.4-0.1-1.5-1.5-1.5C99.6,33.9,88.6,33.9,77.6,33.9z M121.2,52.4c0-1.8-1.5-3.4-3.3-3.5c-1.8,0-3.4,1.5-3.4,3.4
				c-0.1,1.8,1.5,3.4,3.3,3.4C119.6,55.7,121.2,54.2,121.2,52.4z M37.1,52.3c0,1.8,0,3.5,0,5.3c0,0.8,0.1,1.4,1,1.5
				c0.9,0,1.1-0.7,1.1-1.4c0-3.6,0-7.2,0-10.8c0-0.7-0.2-1.3-1-1.4c-0.9,0-1.1,0.7-1.1,1.4C37.1,48.7,37.1,50.5,37.1,52.3z"/>
			<g class="st8">
				<path class="st7" d="M54.5,52.6c0-3.9,2.1-6.2,5.5-6.2c2.8,0,4.9,1.8,5.1,4.5h-2.5c-0.3-1.3-1.3-2.3-2.7-2.3c-1.8,0-3,1.5-3,4
					s1.1,4,3,4c1.4,0,2.6-0.9,2.7-2.1h2.5c-0.2,2.6-2.3,4.3-5.1,4.3C56.7,58.8,54.5,56.5,54.5,52.6z"/>
				<path class="st7" d="M67.3,46.1h2.4v12.5h-2.4V46.1z"/>
				<path class="st7" d="M72,47c0-0.7,0.6-1.1,1.4-1.1s1.4,0.5,1.4,1.1s-0.6,1.1-1.4,1.1C72.5,48.2,72,47.8,72,47z M72.2,49.5h2.4v9
					h-2.4V49.5z"/>
				<path class="st7" d="M85,55.9c-0.4,1.7-1.9,2.8-4.1,2.8c-2.8,0-4.4-1.8-4.4-4.7c0-2.9,1.7-4.7,4.4-4.7c2.7,0,4.2,1.7,4.2,4.6
					v0.8H79v0.1c0,1.3,0.9,2.2,2.1,2.2c0.9,0,1.6-0.4,1.8-0.9L85,55.9L85,55.9L85,55.9z M79,53h3.9c-0.1-1.1-0.8-1.9-1.8-1.9
					C79.8,51.1,79,51.9,79,53z"/>
				<path class="st7" d="M87.1,49.5h2.4v1.4h0.2c0.4-1,1.3-1.7,2.7-1.7c2,0,3.1,1.2,3.1,3.3v5.9h-2.6v-5.3c0-1.2-0.5-1.9-1.7-1.9
					c-1,0-1.8,0.8-1.8,1.9v5.3h-2.3V49.5L87.1,49.5z"/>
				<path class="st7" d="M100.7,47.3v2.3h1.8v1.8h-1.8v4c0,0.8,0.4,1.1,1.1,1.1c0.4,0,0.5,0,0.7,0v1.8c-0.4,0.1-0.8,0.1-1.1,0.1
					c-2.2,0-3.1-0.7-3.1-2.5v-4.7h-1.4v-1.8h1.4v-2.3C98.3,47.3,100.7,47.3,100.7,47.3z"/>
			</g>
		</g>
	</g>
	<g>
		<g>
			<g class="st8">
				<path class="st7" d="M560.7,237.3c0.1,0.9,1,1.6,2.5,1.6c1.2,0,2.2-0.6,2.2-1.5c0-0.8-0.6-1.1-2-1.5l-1.5-0.4
					c-2.2-0.4-3.2-1.6-3.2-3.3c0-2.3,1.8-3.7,4.6-3.7c2.6,0,4.5,1.4,4.6,3.5h-2.4c-0.1-0.9-1-1.6-2.2-1.6c-1.2,0-2.1,0.6-2.1,1.5
					c0,0.8,0.6,1.1,1.9,1.4l1.4,0.4c2.4,0.5,3.4,1.5,3.4,3.3c0,2.4-1.8,3.9-4.7,3.9c-2.8,0-4.6-1.4-4.7-3.6H560.7L560.7,237.3z"/>
				<path class="st7" d="M578,237.9c-0.4,1.7-1.9,2.8-4.1,2.8c-2.8,0-4.4-1.8-4.4-4.7c0-2.9,1.7-4.7,4.4-4.7c2.7,0,4.2,1.7,4.2,4.6
					v0.8h-6.2v0.1c0,1.3,0.9,2.2,2.1,2.2c0.9,0,1.6-0.4,1.8-0.9L578,237.9L578,237.9L578,237.9z M571.9,235.1h3.9
					c-0.1-1.1-0.8-1.9-1.8-1.9C572.8,233.2,572,233.9,571.9,235.1z"/>
				<path class="st7" d="M580,231.5h2.4v1.4h0.2c0.3-0.9,1.1-1.6,2.4-1.6c0.4,0,0.8,0,0.9,0.1v2.2c-0.2-0.1-0.8-0.2-1-0.2
					c-1.3,0-2.2,0.8-2.2,2v5h-2.4v-9L580,231.5L580,231.5z"/>
				<path class="st7" d="M592.5,240.5h-2.7l-3.1-9h2.6l1.8,6.7h0.2l1.8-6.7h2.6L592.5,240.5z"/>
				<path class="st7" d="M604.9,237.9c-0.4,1.7-1.9,2.8-4.1,2.8c-2.8,0-4.4-1.8-4.4-4.7c0-2.9,1.7-4.7,4.4-4.7
					c2.7,0,4.2,1.7,4.2,4.6v0.8h-6.2v0.1c0,1.3,0.9,2.2,2.1,2.2c0.9,0,1.6-0.4,1.8-0.9L604.9,237.9L604.9,237.9L604.9,237.9z
					 M598.9,235.1h3.9c-0.1-1.1-0.8-1.9-1.8-1.9C599.6,233.2,598.9,233.9,598.9,235.1z"/>
				<path class="st7" d="M606.9,231.5h2.4v1.4h0.2c0.3-0.9,1.1-1.6,2.4-1.6c0.4,0,0.8,0,0.9,0.1v2.2c-0.2-0.1-0.8-0.2-1-0.2
					c-1.3,0-2.2,0.8-2.2,2v5h-2.5v-9L606.9,231.5L606.9,231.5z"/>
			</g>
			<path class="st7" d="M625.7,184.9h-81c-1.6,0-2.8,1.3-2.8,2.8v27.7c0,1.6,1.3,2.8,2.8,2.8h81c1.6,0,2.8-1.3,2.8-2.8v-27.7
				C628.6,186.2,627.2,184.9,625.7,184.9z M625.3,215.2h-80.3v-26.9h80.3V215.2z M584.3,206.9v-10.4c0-0.6,0.5-0.9,0.9-0.9
				c0.6,0,0.9,0.5,0.9,0.9v10.4c0,0.6-0.5,0.9-0.9,0.9C584.6,207.9,584.3,207.4,584.3,206.9z M591.6,206.9v-10.4
				c0-0.6,0.5-0.9,0.9-0.9c0.6,0,0.9,0.5,0.9,0.9v10.4c0,0.6-0.5,0.9-0.9,0.9C591.9,207.9,591.6,207.4,591.6,206.9z M598.8,206.9
				v-10.4c0-0.6,0.5-0.9,0.9-0.9c0.6,0,0.9,0.5,0.9,0.9v10.4c0,0.6-0.5,0.9-0.9,0.9C599.3,207.9,598.8,207.4,598.8,206.9z
				 M606.1,206.9v-10.4c0-0.6,0.5-0.9,0.9-0.9c0.6,0,0.9,0.5,0.9,0.9v10.4c0,0.6-0.5,0.9-0.9,0.9
				C606.6,207.9,606.1,207.4,606.1,206.9z M555.1,206.9v-10.4c0-0.6,0.5-0.9,0.9-0.9c0.6,0,0.9,0.5,0.9,0.9v10.4
				c0,0.6-0.5,0.9-0.9,0.9C555.6,207.9,555.1,207.4,555.1,206.9z M562.4,206.9v-10.4c0-0.6,0.5-0.9,0.9-0.9c0.6,0,0.9,0.5,0.9,0.9
				v10.4c0,0.6-0.5,0.9-0.9,0.9C562.9,207.9,562.4,207.4,562.4,206.9z M569.6,206.9v-10.4c0-0.6,0.5-0.9,0.9-0.9
				c0.6,0,0.9,0.5,0.9,0.9v10.4c0,0.6-0.5,0.9-0.9,0.9C570.1,207.9,569.6,207.4,569.6,206.9z M577,206.9v-10.4
				c0-0.6,0.5-0.9,0.9-0.9c0.6,0,0.9,0.5,0.9,0.9v10.4c0,0.6-0.5,0.9-0.9,0.9C577.4,207.9,577,207.4,577,206.9z M613.3,206.9v-10.4
				c0-0.6,0.5-0.9,0.9-0.9c0.6,0,0.9,0.5,0.9,0.9v10.4c0,0.6-0.5,0.9-0.9,0.9C613.8,207.9,613.3,207.4,613.3,206.9z M615.5,222.9
				c0,0.9-0.8,1.6-1.6,1.6h-57.3c-0.9,0-1.6-0.8-1.6-1.6s0.8-1.6,1.6-1.6h57.3C614.7,221.3,615.5,222.1,615.5,222.9z"/>
		</g>
		<g>
			<g class="st8">
				<path class="st7" d="M307.7,237.3c0.1,0.9,1,1.6,2.5,1.6c1.2,0,2.2-0.6,2.2-1.5c0-0.8-0.6-1.1-2-1.5l-1.5-0.4
					c-2.2-0.4-3.2-1.6-3.2-3.3c0-2.3,1.8-3.7,4.6-3.7c2.6,0,4.5,1.4,4.6,3.5h-2.4c-0.1-0.9-1-1.6-2.2-1.6c-1.2,0-2.1,0.6-2.1,1.5
					c0,0.8,0.6,1.1,1.9,1.4l1.4,0.4c2.4,0.5,3.4,1.5,3.4,3.3c0,2.4-1.8,3.9-4.7,3.9c-2.8,0-4.6-1.4-4.7-3.6H307.7L307.7,237.3z"/>
				<path class="st7" d="M324.9,237.9c-0.4,1.7-1.9,2.8-4.1,2.8c-2.8,0-4.4-1.8-4.4-4.7c0-2.9,1.7-4.7,4.4-4.7s4.2,1.7,4.2,4.6v0.8
					h-6.2v0.1c0,1.3,0.9,2.2,2.1,2.2c0.9,0,1.6-0.4,1.8-0.9L324.9,237.9L324.9,237.9L324.9,237.9z M318.8,235.1h3.9
					c-0.1-1.1-0.8-1.9-1.8-1.9C319.6,233.2,318.8,233.9,318.8,235.1z"/>
				<path class="st7" d="M326.9,231.5h2.4v1.4h0.2c0.3-0.9,1.1-1.6,2.4-1.6c0.4,0,0.8,0,0.9,0.1v2.2c-0.2-0.1-0.8-0.2-1-0.2
					c-1.3,0-2.2,0.8-2.2,2v5h-2.5v-9L326.9,231.5L326.9,231.5z"/>
				<path class="st7" d="M339.4,240.5h-2.7l-3.1-9h2.6l1.8,6.7h0.2l1.8-6.7h2.6L339.4,240.5z"/>
				<path class="st7" d="M351.9,237.9c-0.4,1.7-1.9,2.8-4.1,2.8c-2.8,0-4.4-1.8-4.4-4.7c0-2.9,1.7-4.7,4.4-4.7
					c2.7,0,4.2,1.7,4.2,4.6v0.8h-6.2v0.1c0,1.3,0.9,2.2,2.1,2.2c0.9,0,1.6-0.4,1.8-0.9L351.9,237.9L351.9,237.9L351.9,237.9z
					 M345.7,235.1h3.9c-0.1-1.1-0.8-1.9-1.8-1.9C346.6,233.2,345.8,233.9,345.7,235.1z"/>
				<path class="st7" d="M353.9,231.5h2.4v1.4h0.2c0.3-0.9,1.1-1.6,2.4-1.6c0.4,0,0.8,0,0.9,0.1v2.2c-0.2-0.1-0.8-0.2-1-0.2
					c-1.3,0-2.2,0.8-2.2,2v5h-2.4v-9L353.9,231.5L353.9,231.5z"/>
			</g>
			<path class="st7" d="M372.7,184.9h-81c-1.6,0-2.8,1.3-2.8,2.8v27.7c0,1.6,1.3,2.8,2.8,2.8h81c1.6,0,2.8-1.3,2.8-2.8v-27.7
				C375.5,186.2,374.2,184.9,372.7,184.9z M372.2,215.2H292v-26.9h80.3L372.2,215.2L372.2,215.2z M331.1,206.9v-10.4
				c0-0.6,0.5-0.9,0.9-0.9s0.9,0.5,0.9,0.9v10.4c0,0.6-0.5,0.9-0.9,0.9S331.1,207.4,331.1,206.9z M338.4,206.9v-10.4
				c0-0.6,0.5-0.9,0.9-0.9s0.9,0.5,0.9,0.9v10.4c0,0.6-0.5,0.9-0.9,0.9C338.8,207.9,338.4,207.4,338.4,206.9z M345.7,206.9v-10.4
				c0-0.6,0.5-0.9,0.9-0.9c0.6,0,0.9,0.5,0.9,0.9v10.4c0,0.6-0.5,0.9-0.9,0.9C346.1,207.9,345.7,207.4,345.7,206.9z M353,206.9
				v-10.4c0-0.6,0.5-0.9,0.9-0.9s0.9,0.5,0.9,0.9v10.4c0,0.6-0.5,0.9-0.9,0.9C353.4,207.9,353,207.4,353,206.9z M302,206.9v-10.4
				c0-0.6,0.5-0.9,0.9-0.9s0.9,0.5,0.9,0.9v10.4c0,0.6-0.5,0.9-0.9,0.9S302,207.4,302,206.9z M309.3,206.9v-10.4
				c0-0.6,0.5-0.9,0.9-0.9s0.9,0.5,0.9,0.9v10.4c0,0.6-0.5,0.9-0.9,0.9S309.3,207.4,309.3,206.9z M316.6,206.9v-10.4
				c0-0.6,0.5-0.9,0.9-0.9s0.9,0.5,0.9,0.9v10.4c0,0.6-0.5,0.9-0.9,0.9S316.6,207.4,316.6,206.9z M323.9,206.9v-10.4
				c0-0.6,0.5-0.9,0.9-0.9c0.6,0,0.9,0.5,0.9,0.9v10.4c0,0.6-0.5,0.9-0.9,0.9C324.3,207.9,323.9,207.4,323.9,206.9z M360.2,206.9
				v-10.4c0-0.6,0.5-0.9,0.9-0.9c0.6,0,0.9,0.5,0.9,0.9v10.4c0,0.6-0.5,0.9-0.9,0.9S360.2,207.4,360.2,206.9z M362.4,222.9
				c0,0.9-0.8,1.6-1.6,1.6h-57.3c-0.9,0-1.6-0.8-1.6-1.6s0.8-1.6,1.6-1.6h57.3C361.6,221.3,362.4,222.1,362.4,222.9z"/>
		</g>
		<g>
			<g class="st8">
				<path class="st7" d="M54,237.3c0.1,0.9,1,1.6,2.5,1.6c1.2,0,2.2-0.6,2.2-1.5c0-0.8-0.6-1.1-2-1.5l-1.5-0.4
					c-2.2-0.4-3.2-1.6-3.2-3.3c0-2.3,1.8-3.7,4.6-3.7c2.6,0,4.5,1.4,4.6,3.5h-2.4c-0.1-0.9-1-1.6-2.2-1.6c-1.2,0-2.1,0.6-2.1,1.5
					c0,0.8,0.6,1.1,1.9,1.4l1.4,0.4c2.4,0.5,3.4,1.5,3.4,3.3c0,2.4-1.8,3.9-4.7,3.9c-2.8,0-4.6-1.4-4.7-3.6H54L54,237.3z"/>
				<path class="st7" d="M71.3,237.9c-0.4,1.7-1.9,2.8-4.1,2.8c-2.8,0-4.4-1.8-4.4-4.7c0-2.9,1.7-4.7,4.4-4.7c2.7,0,4.2,1.7,4.2,4.6
					v0.8h-6.2v0.1c0,1.3,0.9,2.2,2.1,2.2c0.9,0,1.6-0.4,1.8-0.9L71.3,237.9C71.3,237.8,71.3,237.9,71.3,237.9z M65.1,235.1H69
					c-0.1-1.1-0.8-1.9-1.8-1.9C66,233.2,65.2,233.9,65.1,235.1z"/>
				<path class="st7" d="M73.3,231.5h2.3v1.4h0.2c0.3-0.9,1.1-1.6,2.4-1.6c0.4,0,0.8,0,0.9,0.1v2.2c-0.2-0.1-0.8-0.2-1-0.2
					c-1.3,0-2.2,0.8-2.2,2v5h-2.4L73.3,231.5L73.3,231.5z"/>
				<path class="st7" d="M85.8,240.5h-2.7l-3.1-9h2.6l1.8,6.7h0.2l1.8-6.7h2.6L85.8,240.5z"/>
				<path class="st7" d="M98.2,237.9c-0.4,1.7-1.9,2.8-4.1,2.8c-2.8,0-4.4-1.8-4.4-4.7c0-2.9,1.7-4.7,4.4-4.7c2.7,0,4.2,1.7,4.2,4.6
					v0.8h-6.2v0.1c0,1.3,0.9,2.2,2.1,2.2c0.9,0,1.6-0.4,1.8-0.9L98.2,237.9C98.2,237.8,98.2,237.9,98.2,237.9z M92.1,235.1h3.9
					c-0.1-1.1-0.8-1.9-1.8-1.9C92.9,233.2,92.2,233.9,92.1,235.1z"/>
				<path class="st7" d="M100.2,231.5h2.4v1.4h0.2c0.3-0.9,1.1-1.6,2.4-1.6c0.4,0,0.8,0,0.9,0.1v2.2c-0.2-0.1-0.8-0.2-1-0.2
					c-1.3,0-2.2,0.8-2.2,2v5h-2.4v-9L100.2,231.5L100.2,231.5z"/>
			</g>
			<path class="st7" d="M119,184.9H38c-1.6,0-2.8,1.3-2.8,2.8v27.7c0,1.6,1.3,2.8,2.8,2.8h81c1.6,0,2.8-1.3,2.8-2.8v-27.7
				C121.8,186.2,120.5,184.9,119,184.9z M118.5,215.2H38.3v-26.9h80.3L118.5,215.2L118.5,215.2z M77.4,206.9v-10.4
				c0-0.6,0.5-0.9,0.9-0.9c0.6,0,0.9,0.5,0.9,0.9v10.4c0,0.6-0.5,0.9-0.9,0.9C77.8,207.9,77.4,207.4,77.4,206.9z M84.8,206.9v-10.4
				c0-0.6,0.5-0.9,0.9-0.9c0.6,0,0.9,0.5,0.9,0.9v10.4c0,0.6-0.5,0.9-0.9,0.9C85.1,207.9,84.8,207.4,84.8,206.9z M92.1,206.9v-10.4
				c0-0.6,0.5-0.9,0.9-0.9c0.6,0,0.9,0.5,0.9,0.9v10.4c0,0.6-0.5,0.9-0.9,0.9C92.4,207.9,92.1,207.4,92.1,206.9z M99.3,206.9v-10.4
				c0-0.6,0.5-0.9,0.9-0.9c0.6,0,0.9,0.5,0.9,0.9v10.4c0,0.6-0.5,0.9-0.9,0.9C99.7,207.9,99.3,207.4,99.3,206.9z M48.4,206.9v-10.4
				c0-0.6,0.5-0.9,0.9-0.9c0.6,0,0.9,0.5,0.9,0.9v10.4c0,0.6-0.5,0.9-0.9,0.9C48.8,207.9,48.4,207.4,48.4,206.9z M55.6,206.9v-10.4
				c0-0.6,0.5-0.9,0.9-0.9c0.6,0,0.9,0.5,0.9,0.9v10.4c0,0.6-0.5,0.9-0.9,0.9C56.1,207.9,55.6,207.4,55.6,206.9z M62.9,206.9v-10.4
				c0-0.6,0.5-0.9,0.9-0.9c0.6,0,0.9,0.5,0.9,0.9v10.4c0,0.6-0.5,0.9-0.9,0.9C63.3,207.9,62.9,207.4,62.9,206.9z M70.1,206.9v-10.4
				c0-0.6,0.5-0.9,0.9-0.9s0.9,0.5,0.9,0.9v10.4c0,0.6-0.5,0.9-0.9,0.9S70.1,207.4,70.1,206.9z M106.6,206.9v-10.4
				c0-0.6,0.5-0.9,0.9-0.9c0.6,0,0.9,0.5,0.9,0.9v10.4c0,0.6-0.5,0.9-0.9,0.9C107.1,207.9,106.6,207.4,106.6,206.9z M108.8,222.9
				c0,0.9-0.8,1.6-1.6,1.6H49.7c-0.9,0-1.6-0.8-1.6-1.6s0.8-1.6,1.6-1.6h57.3C108,221.3,108.8,222.1,108.8,222.9z"/>
		</g>
	</g>
</g>
<g>
	<g id="Server">
		<g id="Hardware_1_">
			<path id="Container_2_" class="st7" d="M78.7,325.9c16.6,0,30,13.4,30,30s-13.4,30-30,30s-30-13.4-30-30S62.1,325.9,78.7,325.9
				 M78.7,320.9c-19.3,0-35,15.7-35,35s15.7,35,35,35s35-15.7,35-35S98,320.9,78.7,320.9L78.7,320.9z"/>
			<text transform="matrix(1 0 0 1 65.3995 360.9077)" class="st7 st9 st10">Files</text>
		</g>
		<g id="Software_1_">
			<path id="Container_3_" class="st7" d="M158.7,325.9c16.6,0,30,13.4,30,30s-13.4,30-30,30s-30-13.4-30-30
				S142.1,325.9,158.7,325.9 M158.7,320.9c-19.3,0-35,15.7-35,35s15.7,35,35,35s35-15.7,35-35S178,320.9,158.7,320.9L158.7,320.9z"
				/>
			<text transform="matrix(1 0 0 1 143.0274 350.9077)" class="st7 st9 st10">HTTP</text>
			<text transform="matrix(1 0 0 1 140.0298 367.9077)" class="st7 st9 st10">server</text>
		</g>
		<path id="Container_1_" class="st7" d="M118.7,275.9c44.1,0,80,35.9,80,80s-35.9,80-80,80s-80-35.9-80-80S74.6,275.9,118.7,275.9
			 M118.7,270.9c-46.9,0-85,38.1-85,85s38.1,85,85,85s85-38.1,85-85S165.6,270.9,118.7,270.9L118.7,270.9z"/>
		<text transform="matrix(1 0 0 1 81.7779 465.9077)" class="st7 st11 st10">Web server</text>
	</g>
	<g id="Browser">
		<g id="Computer_2_">
			<path id="Screen_2_" class="st7" d="M583.7,328.5v40h-70v-40H583.7 M583.7,323.5h-70c-2.8,0-5,2.2-5,5v40c0,2.8,2.2,5,5,5h70
				c2.8,0,5-2.2,5-5v-40C588.7,325.8,586.5,323.5,583.7,323.5L583.7,323.5z"/>
			<path id="Keyboard_2_" class="st7" d="M598.7,381.5h-100c-2.8,0-5-2.2-5-5l0,0h110l0,0C603.7,379.3,601.5,381.5,598.7,381.5z"/>
		</g>
		<path id="Container_5_" class="st7" d="M548.7,276.5c44.1,0,80,35.9,80,80s-35.9,80-80,80s-80-35.9-80-80S504.6,276.5,548.7,276.5
			 M548.7,271.5c-46.9,0-85,38.1-85,85s38.1,85,85,85s85-38.1,85-85S595.6,271.5,548.7,271.5L548.7,271.5z"/>
		<text transform="matrix(1 0 0 1 521.5191 465.9077)" class="st7 st11 st10">Browser</text>
	</g>
	<g id="HTTP">
		<polygon id="left_arrow" class="st7" points="208.7,324.9 208.7,318.9 198.7,326.4 208.7,333.9 208.7,328 473.7,328 473.7,324.9 
					"/>
		<polygon id="right_arrow" class="st7" points="458.7,383.9 458.7,377.9 468.7,385.4 458.7,392.9 458.7,387 193.7,387 193.7,383.9 
					"/>
		<text transform="matrix(1 0 0 1 366.9756 343.9077)" class="st7 st9 st10">HTTP Request</text>
		<text transform="matrix(1 0 0 1 214.3204 377.9077)" class="st7 st9 st10">HTTP Response</text>
	</g>
</g>
</svg>
