<svg xmlns="http://www.w3.org/2000/svg"
	xmlns:xlink="http://www.w3.org/1999/xlink" viewBox="0 0 25 22">
	<path d="M23.7,12c-0.1,0.2-0.2,0.4-0.4,0.5c-0.3,0.3-0.6,0.7-0.9,1c-0.3,0.4-0.7,0.4-1.1,0c-0.3-0.4-0.7-0.7-1-1.1
	c-0.3-0.3-0.3-0.7-0.1-0.9c0.2-0.3,0.6-0.3,1,0c0-0.1,0-0.1,0-0.2c0.1-4.2-2.7-7.8-6.9-8.6c-3.6-0.7-6.5,0.4-8.8,3.2
	C5.4,6,5.2,6.2,5,6.3C4.8,6.4,4.5,6.2,4.4,6c-0.2-0.2-0.1-0.5,0-0.8c0.5-0.7,1.1-1.3,1.8-1.9c2-1.5,4.2-2.3,6.8-2.2
	c4.5,0.2,8.4,3.4,9.3,7.7c0.2,0.7,0.2,1.5,0.2,2.3c0,0.1,0,0.2,0,0.3c0.1-0.1,0.3-0.1,0.4-0.1c0.3-0.1,0.5,0.1,0.8,0.5
	C23.7,11.8,23.7,11.9,23.7,12z"/>
	<path d="M18.6,12.2c-0.1,0-0.1-0.1-0.2-0.1c-0.2-0.1-0.4-0.2-0.6-0.3c-0.1,0-0.1-0.1-0.1-0.1c0-0.4,0-0.7,0-1.1c0-0.1,0-0.1,0.1-0.2
	c0.2-0.1,0.5-0.3,0.8-0.4c0.4-0.3,0.5-0.7,0.3-1.1C18.5,8,18,7.2,17.7,6.6c-0.2-0.3-0.4-0.4-0.7-0.4c-0.1,0-0.3,0-0.4,0.1
	c-0.3,0.1-0.5,0.3-0.8,0.4l0,0c0,0-0.1,0-0.1,0c0,0,0,0-0.1,0c-0.3-0.2-0.6-0.4-1-0.6c-0.1,0-0.1-0.1-0.1-0.2c0-0.3,0-0.6,0-0.9
	c0-0.5-0.3-0.8-0.8-0.8c-0.2,0-0.4,0-0.7,0c-0.2,0-0.4,0-0.7,0c-0.4,0-0.9,0-1.3,0c-0.5,0-0.8,0.3-0.8,0.8c0,0.1,0,0.1,0,0.2
	c0,0.2,0,0.4,0,0.7c0,0.1,0,0.1-0.1,0.2C10,6.4,9.7,6.6,9.4,6.8c-0.1,0-0.1,0-0.1,0c0,0-0.1,0-0.1,0C8.9,6.6,8.7,6.5,8.4,6.3
	C8.2,6.3,8.1,6.2,8,6.2c-0.3,0-0.5,0.1-0.7,0.4C6.9,7.4,6.4,8.1,6.1,8.8C5.8,9.2,5.9,9.6,6.4,9.9c0.1,0,0.1,0.1,0.2,0.1
	c0.2,0.1,0.4,0.2,0.6,0.3c0,0,0.1,0.1,0.1,0.1c0,0.2,0,0.3,0,0.5c0,0.2,0,0.4,0,0.6c0,0.1,0,0.1-0.1,0.1c-0.3,0.1-0.5,0.3-0.8,0.4
	c-0.4,0.2-0.5,0.7-0.3,1.1c0.5,0.8,0.9,1.5,1.3,2.2c0.2,0.3,0.4,0.4,0.6,0.4c0.1,0,0.3,0,0.4-0.1c0.3-0.1,0.5-0.3,0.8-0.4
	c0,0,0.1,0,0.1,0c0,0,0,0,0.1,0c0.3,0.2,0.6,0.4,1,0.6c0.1,0,0.1,0.1,0.1,0.1c0,0.2,0,0.4,0,0.6c0,0.1,0,0.1,0,0.2
	c0,0.5,0.3,0.8,0.8,0.8h1.2c0.4,0,0.9,0,1.3,0h0h0c0.5,0,0.8-0.3,0.8-0.8c0-0.1,0-0.1,0-0.2c0-0.2,0-0.4,0-0.7c0-0.1,0-0.1,0.1-0.1
	c0.4-0.2,0.7-0.4,1-0.6l0,0c0,0,0.1,0,0.1,0c0,0,0,0,0.1,0c0.3,0.2,0.5,0.3,0.8,0.5c0.4,0.2,0.8,0.1,1.1-0.3
	c0.4-0.7,0.8-1.4,1.3-2.2C19.2,12.8,19.1,12.4,18.6,12.2z M13.5,16c0,0.2,0,0.4,0,0.6c-0.3,0-0.7,0-1,0h-1c0-0.2,0-0.4,0-0.6
	c0-0.5-0.2-0.9-0.7-1.1c-0.3-0.2-0.6-0.3-0.9-0.5c-0.2-0.1-0.4-0.2-0.7-0.2c-0.2,0-0.4,0.1-0.6,0.2l0,0c-0.2,0.1-0.4,0.2-0.5,0.3
	c-0.3-0.5-0.7-1.1-1-1.7c0.2-0.1,0.4-0.2,0.5-0.3l0,0c0.4-0.2,0.6-0.6,0.6-1.1c0-0.2,0-0.4,0-0.6c0-0.2,0-0.4,0-0.5
	c0-0.4-0.2-0.8-0.6-1C7.6,9.3,7.4,9.2,7.2,9.1l-0.1,0c0.3-0.5,0.6-1.1,1-1.7c0.2,0.1,0.3,0.2,0.5,0.3l0,0l0,0
	c0.2,0.1,0.4,0.2,0.7,0.2c0.2,0,0.5-0.1,0.7-0.2l0,0c0.3-0.2,0.6-0.3,0.9-0.5c0.6-0.3,0.7-0.8,0.7-1.1c0-0.2,0-0.4,0-0.6
	c0.2,0,0.4,0,0.6,0c0.1,0,0.2,0,0.4,0c0.3,0,0.7,0,1,0v0.6c0,0.5,0.2,0.9,0.7,1.1c0.3,0.2,0.6,0.3,0.9,0.5l0,0l0,0
	c0.2,0.1,0.4,0.2,0.6,0.2c0.2,0,0.4-0.1,0.6-0.2h0l0,0c0.1-0.1,0.3-0.2,0.4-0.3c0,0,0,0,0.1,0c0.3,0.5,0.6,1.1,1,1.7
	c-0.2,0.1-0.3,0.2-0.5,0.3l0,0c-0.4,0.2-0.7,0.6-0.6,1.1c0,0.3,0,0.7,0,1c0,0.5,0.2,0.9,0.6,1.1l0,0h0c0.1,0.1,0.3,0.2,0.4,0.2
	c0,0,0,0,0.1,0c-0.3,0.5-0.6,0.9-0.8,1.4c-0.1,0.1-0.1,0.2-0.2,0.3l-0.1,0c-0.2-0.1-0.3-0.2-0.5-0.3l0,0l0,0c-0.4-0.2-0.9-0.2-1.3,0
	c-0.3,0.2-0.7,0.4-0.9,0.5l0,0l0,0C13.6,15.2,13.5,15.6,13.5,16z"/>
	<path d="M15.4,11c0-1.6-1.3-2.9-2.9-2.9h0c-0.8,0-1.5,0.3-2.1,0.9c-0.6,0.5-0.9,1.3-0.9,2c0,1.6,1.3,2.9,2.9,2.9h0
	c0.8,0,1.5-0.3,2.1-0.9C15.1,12.5,15.5,11.8,15.4,11z M14.4,11c0,0.5-0.2,1-0.5,1.3c-0.3,0.3-0.8,0.5-1.3,0.5h0
	c-1,0-1.9-0.8-1.9-1.8c0-0.5,0.2-1,0.5-1.3c0.4-0.4,0.8-0.5,1.3-0.5h0C13.5,9.2,14.4,10,14.4,11z"/>
	<path d="M2.5,10.6c-0.2,0.1-0.3,0.1-0.5,0.1c-0.3,0-0.5-0.1-0.6-0.3c-0.1-0.2-0.1-0.5,0-0.7c0.4-0.5,0.8-0.9,1.2-1.4
	c0.2-0.3,0.7-0.2,0.9,0C4,8.8,4.4,9.3,4.8,9.7C5,10,5,10.3,4.8,10.6c-0.2,0.2-0.6,0.3-0.9,0.1c0,0-0.1,0-0.1-0.1c0,0.4,0,0.8,0,1.2
	c0.4,3.2,2.1,5.6,5,7c3.7,1.7,8.1,0.6,10.6-2.7c0.1-0.2,0.3-0.3,0.5-0.4c0.3-0.1,0.5,0,0.7,0.3c0.2,0.2,0.1,0.5,0,0.7
	c-0.5,0.6-1,1.2-1.6,1.7c-2,1.7-4.3,2.5-7,2.4c-4.5-0.1-8.4-3.4-9.3-7.7c-0.2-0.7-0.2-1.5-0.2-2.3C2.5,10.8,2.5,10.7,2.5,10.6z"/>
</svg>
